HIERARCHY
ROOT Hips
{
  OFFSET 7.37879 96.3563 -8.57355
  CHANNELS 6 Xposition Yposition Zposition Zrotation Xrotation Yrotation
  JOINT ToSpine
  {
    OFFSET -2.69724 7.43032 -0.144315
    CHANNELS 3 Zrotation Xrotation Yrotation
    JOINT Spine
    {
      OFFSET -0.0310711 10.7595 1.96963
      CHANNELS 3 Zrotation Xrotation Yrotation
      JOINT Spine1
      {
        OFFSET 13.1342 3.43533 0.764692
        CHANNELS 3 Zrotation Xrotation Yrotation
        JOINT Neck
        {
          OFFSET 29.8703 7.82586 -0.130764
          CHANNELS 3 Zrotation Xrotation Yrotation
          JOINT Head
          {
            OFFSET 9.52751 0.295786 -0.907742
            CHANNELS 3 Zrotation Xrotation Yrotation
            End Site
            {
              OFFSET 16.4037 0.713936 2.7358
            }
          }
        }
        JOINT LeftShoulder
        {
          OFFSET 27.5574 4.95586 2.47156
          CHANNELS 3 Zrotation Xrotation Yrotation
          JOINT LeftArm
          {
            OFFSET 1.20734 -0.998971 20.1238
            CHANNELS 3 Zrotation Xrotation Yrotation
            JOINT LeftForeArm
            {
              OFFSET 26.8049 -0.0536703 -0.155908
              CHANNELS 3 Zrotation Xrotation Yrotation
              JOINT LeftHand
              {
                OFFSET 26.6817 0 0.320147
                CHANNELS 3 Zrotation Xrotation Yrotation
                End Site
                {
                  OFFSET 18.6119 0 0.382219
                }
              }
            }
          }
        }
        JOINT RightShoulder
        {
          OFFSET 27.5927 4.71444 -2.65209
          CHANNELS 3 Zrotation Xrotation Yrotation
          JOINT RightArm
          {
            OFFSET 2.83739 -1.17114 -18.7564
            CHANNELS 3 Zrotation Xrotation Yrotation
            JOINT RightForeArm
            {
              OFFSET 28.839 -0.0548439 1.22491
              CHANNELS 3 Zrotation Xrotation Yrotation
              JOINT RightHand
              {
                OFFSET 26.5114 0 -0.101894
                CHANNELS 3 Zrotation Xrotation Yrotation
                End Site
                {
                  OFFSET 18.2168 0 0
                }
              }
            }
          }
        }
      }
    }
  }
  JOINT LeftUpLeg
  {
    OFFSET -4.76168 -1.9167 -10.2353
    CHANNELS 3 Zrotation Xrotation Yrotation
    JOINT LeftLeg
    {
      OFFSET 2.55951 -42.0585 -8.02213
      CHANNELS 3 Zrotation Xrotation Yrotation
      JOINT LeftFoot
      {
        OFFSET 3.16357 -42.5282 -3.95426
        CHANNELS 3 Zrotation Xrotation Yrotation
        JOINT LeftToeBase
        {
          OFFSET 0.346054 -6.02161 12.8035
          CHANNELS 3 Zrotation Xrotation Yrotation
          End Site
          {
            OFFSET 0.134235 -1.35082 5.13018
          }
        }
      }
    }
  }
  JOINT RightUpLeg
  {
    OFFSET -4.94151 -1.41743 10.6446
    CHANNELS 3 Zrotation Xrotation Yrotation
    JOINT RightLeg
    {
      OFFSET -2.56294 -42.0364 -7.94377
      CHANNELS 3 Zrotation Xrotation Yrotation
      JOINT RightFoot
      {
        OFFSET -3.0952 -42.555 -4.02241
        CHANNELS 3 Zrotation Xrotation Yrotation
        JOINT RightToeBase
        {
          OFFSET -0.0828122 -6.13587 12.8035
          CHANNELS 3 Zrotation Xrotation Yrotation
          End Site
          {
            OFFSET -0.131328 -1.35082 5.13018
          }
        }
      }
    }
  }
}
MOTION
Frames:	10
Frame Time:	0.0333333
9.56943 96.4628 -16.527 -13.6172 -71.0223 -104.728 -70.1915 0 88.8779 65.0145 66.3458 16.9223 9.83019 17.36 2.69057 -120.151 21.7014 177.53 -141.173 59.7005 -170.585 0.732168 -14.8778 -16.5767 -93.9582 29.523 -105.342 11.5312 1.73166 -80.9128 -0.832754 -0.00483344 5.63903 -0.264463 4.9012 19.694 -58.9479 -44.7515 156.329 23.3979 -1.62158 88.1096 2.13813 0.10138 4.06288 -57.2256 5.30011 115.575 -1.57378 31.0793 17.3955 -1.40913 -8.65648 -0.698043 4.74723 -12.0306 12.0844 -41.2753 -6.63754 75.5737 1.06393 49.761 -9.93197 -14.4787 -2.06161 1.92722 1.99598 -15.8549 -5.95111 
9.50576 96.4393 -15.9653 -28.3277 -68.5738 -120.207 -70.1915 0 88.8779 61.1995 65.105 21.16 11.4177 16.7697 3.08561 -122.703 21.1515 -178.767 -140.326 57.7531 -172.748 0.653002 -15.3724 -17.4661 -99.5493 27.4693 -97.6789 13.6092 1.9214 -81.4326 -0.976587 -0.0081639 5.54586 -0.260761 4.21842 20.7556 -53.6005 -39.727 158.536 22.1067 1.89601 91.6463 2.04645 0.100061 4.1637 -57.4214 6.81772 119.307 -0.357679 33.7624 12.8969 -2.18091 -8.08907 -0.602231 5.32693 -13.1152 13.6388 -44.6091 -5.98442 75.1008 0.694946 45.6157 -7.16312 -12.3407 -2.35608 1.71816 2.60546 -20.7953 -1.41911 
9.18057 96.4064 -15.5429 -40.5708 -64.524 -132.654 -70.1915 0 88.8779 59.0067 64.3051 24.6393 12.8532 16.6403 3.53695 -125.681 20.253 -175.796 -139.982 55.8575 -174.683 0.416119 -16.5334 -19.8967 -105.215 23.3845 -89.8978 13.5939 1.74334 -82.1341 -0.785063 0.000736766 4.76585 -0.384952 4.4492 22.8935 -51.0728 -34.4712 158.069 20.2784 2.08161 96.6074 1.74777 0.081177 3.81163 -56.8303 9.88009 121.536 -0.217056 38.6725 11.4913 -1.34332 -6.84202 -0.526479 5.73041 -13.586 11.5605 -48.0602 -3.59994 76.9822 1.96346 38.2567 1.87071 -5.99749 -5.68821 1.00782 2.31653 -17.8613 -11.8902 
8.95297 95.9533 -15.4399 -50.1176 -59.4473 -142.583 -70.1915 0 88.8779 60.4876 64.2918 25.4692 13.702 16.9322 2.32598 -129.318 18.9982 -172.854 -141.067 54.1289 -175.076 0.228213 -17.0673 -21.9773 -110.484 17.7405 -83.3397 12.508 1.45906 -82.7437 -0.62276 0.00641804 4.3824 -0.555882 4.69633 25.8045 -49.8873 -29.515 157.801 17.6703 3.126 99.4728 1.24007 0.0490006 2.92327 -54.5718 13.6848 122.032 -0.986069 47.3611 8.96663 -1.74709 -3.4666 -0.207397 6.99681 -15.7948 16.6438 -48.7378 -1.52985 78.9825 1.73575 35.849 2.28871 -6.73496 -8.20563 1.18425 1.45543 -13.3746 -2.15478 
8.8253 95.207 -15.6726 -57.5123 -53.5702 -149.956 -70.1915 0 88.8779 66.2518 65.6804 21.9319 12.6754 17.6686 1.73599 -131.592 17.622 -170.892 -140.775 52.3854 -175.621 -0.13062 -18.2937 -24.7831 -114.942 11.6167 -78.1436 11.8869 1.22368 -83.4806 -0.635775 0.00758436 4.61169 -0.61743 4.7899 26.7602 -48.8438 -25.9328 158.583 15.58 3.17797 101.053 0.778146 0.022157 1.82656 -51.2438 18.669 121.213 -2.33676 57.474 9.78062 0.0102921 0.915382 -0.0102484 7.15114 -16.0379 15.2628 -48.1504 1.37113 82.2331 1.75881 35.8651 4.85316 -8.43939 -10.85 1.2922 1.63278 -9.41299 -5.03644 
9.08955 94.8776 -15.7996 -61.805 -47.8602 -154.579 -70.1915 0 88.8779 73.0967 66.4617 16.4683 11.0298 17.6461 1.0922 -133.718 15.672 -169.507 -140.821 50.2541 -176.106 -0.214151 -18.1902 -26.0985 -119.438 6.96071 -72.794 12.3799 1.13926 -84.0905 -0.612763 0.00865926 4.38544 -0.827342 5.56828 28.4937 -48.0687 -21.9789 158.964 13.2788 2.8342 101.642 0.59542 0.0152212 1.56182 -47.1029 21.5551 117.4 -4.98666 65.1983 7.47905 0.161772 1.99164 0.0290226 5.14076 -12.572 11.4792 -47.2731 2.85634 83.8134 1.65844 35.794 6.08031 -8.74612 -12.1893 1.30192 0.628342 -6.3883 0.30348 
9.62112 94.9293 -15.7187 -62.8913 -43.9069 -156.909 -70.1915 0 88.8779 76.4237 66.1675 12.9372 10.2446 16.8727 0.708733 -135.811 13.6617 -168.957 -140.686 48.168 -177.013 -0.376434 -18.1387 -28.3616 -123.928 2.44949 -69.5857 13.797 1.30279 -83.9869 -0.515979 0.00969109 3.66426 -1.01318 5.80101 31.0247 -48.1758 -17.6009 158.448 10.7142 2.31888 101.88 0.490262 0.014773 1.56936 -43.0561 21.0305 111.064 -6.97912 66.4212 0.433261 -2.36853 -1.84535 0.0434913 5.24421 -12.7293 11.1623 -45.6276 2.70166 84.9067 1.9655 36.3553 9.60583 -7.62932 -11.7094 1.27042 0.957267 -6.07946 -2.10293 
10.4845 94.6477 -15.4108 -64.1486 -40.5321 -159.28 -70.1915 0 88.8779 81.7306 66.4338 7.16026 8.60368 16.5669 0.991436 -137.132 12.4929 -168.872 -141.024 47.1751 -176.939 -0.558284 -18.2799 -30.4182 -127.877 -0.876901 -68.1542 14.7506 1.46238 -83.7464 -0.588798 0.00908986 3.75605 -1.17129 6.129 32.7039 -48.6289 -14.742 158.034 9.46203 1.98866 101.569 0.29681 0.0138052 0.769618 -40.7177 19.7935 104.753 -6.30942 62.856 -2.28092 -3.274 -4.6499 -0.159478 6.41331 -14.7646 13.2247 -43.631 2.62896 87.0872 2.4759 38.2846 10.2326 -6.80787 -11.5081 1.24358 0.89684 -6.32382 -1.35885 
11.2142 94.1384 -14.803 -65.3293 -36.6164 -161.811 -70.1915 0 88.8779 84.7107 67.1717 3.6735 7.42027 17.1635 1.14484 -137.028 11.5511 -169.259 -140.48 46.2367 -176.852 -0.568596 -18.0732 -31.1609 -131.092 -2.04884 -67.6302 15.9037 1.59324 -83.712 -0.84731 0.00672274 4.45739 -1.14071 6.11879 32.2908 -48.219 -14.0694 158.391 9.86619 1.84311 100.301 0.193195 0.012371 0.12819 -40.5153 19.4878 100.211 -3.95663 55.4943 -0.216865 -2.14225 -6.47804 -0.450353 6.48379 -14.9263 13.9717 -41.5511 2.81318 89.289 2.97347 40.4227 10.0746 -7.40922 -11.9467 1.27179 0.704122 -6.68832 0.777802 
11.7847 94.0769 -13.8749 -66.2463 -32.725 -163.843 -70.1915 0 88.8779 86.0399 67.8183 2.57184 6.83903 18.0149 0.402003 -136.193 10.8474 -169.129 -140.317 45.4694 -176.231 -0.502446 -17.5839 -31.6947 -133.326 -2.85328 -68.0517 17.4789 2.00908 -82.9412 -0.970201 0.00458381 4.54086 -1.12 6.35819 31.1698 -47.4942 -14.0618 158.549 10.7952 1.64589 98.4185 0.349752 0.0110728 0.855832 -42.2796 19.8038 96.7456 -1.77413 45.1597 3.58096 -1.6427 -6.31323 -0.464037 5.94415 -14.0707 13.5453 -40.3285 3.44136 92.5034 3.36415 41.6166 12.6378 -3.88283 -12.3036 1.18577 1.02228 -4.76358 -3.66899 
